<?xml version="1.0" standalone="no"?>
<!DOCTYPE svg PUBLIC "-//W3C//DTD SVG 20010904//EN"
 "http://www.w3.org/TR/2001/REC-SVG-20010904/DTD/svg10.dtd">
<svg version="1.0" xmlns="http://www.w3.org/2000/svg"
 width="300.000000pt" height="450.000000pt" viewBox="0 0 300.000000 450.000000"
 preserveAspectRatio="xMidYMid meet">
<metadata>
Created by potrace 1.10, written by Peter Selinger 2001-2011
</metadata>
<g transform="translate(0.000000,450.000000) scale(0.100000,-0.100000)"
fill="#222222" stroke="none">
<path d="M885 4232 c-34 -21 -62 -52 -48 -52 6 0 18 10 29 21 10 12 33 28 49
35 17 7 23 13 15 14 -8 0 -28 -8 -45 -18z"/>
<path d="M939 4181 c-33 -26 -16 -39 22 -17 17 10 33 15 36 12 4 -3 3 -6 -2
-6 -5 0 2 -11 16 -26 21 -22 21 -24 4 -19 -16 6 -17 5 -5 -4 23 -17 54 23 37
50 -6 10 -22 19 -34 19 -12 0 -28 2 -36 5 -7 3 -25 -3 -38 -14z"/>
<path d="M769 4154 c-9 -11 -8 -14 5 -14 9 0 16 4 16 10 0 5 6 7 14 4 8 -3 16
-2 19 3 9 14 -42 11 -54 -3z"/>
<path d="M881 4149 c-13 -5 -22 -11 -20 -14 8 -7 49 7 49 16 0 5 -1 9 -2 8 -2
0 -14 -5 -27 -10z"/>
<path d="M941 4136 c-7 -8 -11 -19 -8 -23 3 -4 -14 -8 -36 -8 -23 0 -46 6 -50
13 -12 18 -35 15 -41 -6 -8 -25 -63 -47 -81 -32 -19 16 -37 3 -33 -23 2 -16
-2 -22 -17 -22 -13 0 -19 -6 -17 -16 2 -13 -4 -15 -24 -11 -25 4 -26 3 -21
-21 6 -23 -13 -79 -27 -78 -25 3 -27 -2 -10 -21 21 -25 24 -45 9 -67 -12 -21
-6 -108 12 -152 8 -21 37 -58 64 -83 27 -25 49 -51 49 -59 0 -8 9 -22 21 -33
17 -15 19 -25 14 -54 -13 -66 -7 -125 20 -210 36 -112 36 -106 -4 -490 -25
-233 -26 -286 -5 -432 11 -79 14 -154 11 -252 l-5 -138 -30 -18 c-61 -37 -112
-140 -70 -140 10 0 10 2 1 8 -9 6 1 19 32 45 24 20 49 37 54 37 6 0 11 10 11
23 0 12 11 34 25 49 21 23 25 37 24 85 0 42 -3 52 -9 38 -7 -16 -9 -17 -9 -3
-1 9 3 19 8 22 4 3 6 16 4 30 -3 15 2 30 17 44 21 19 13 41 -10 27 -5 -3 -10
-1 -10 5 0 6 -5 8 -12 4 -6 -4 -4 3 5 16 12 17 13 29 6 48 -12 31 2 64 35 81
18 10 18 11 1 5 -62 -21 -60 -24 -60 78 0 51 4 100 10 108 15 23 15 41 -1 47
-8 3 -11 10 -7 16 3 6 6 41 5 79 -1 37 2 68 7 68 5 0 9 26 9 58 0 31 2 64 5
72 3 8 8 35 10 59 3 25 12 48 21 53 12 7 13 14 5 35 -5 15 -8 32 -5 40 3 7 1
13 -4 13 -6 0 -10 7 -10 15 0 8 5 15 11 15 8 0 8 4 1 13 -6 7 -13 30 -15 52
-2 22 -14 62 -26 89 -12 27 -20 54 -18 60 2 6 -2 26 -10 44 -10 23 -11 38 -3
52 5 10 7 25 4 34 -10 26 55 85 111 99 44 12 57 11 113 -6 l62 -19 0 -43 c0
-35 5 -46 25 -59 29 -19 33 -6 10 34 -19 33 -18 40 4 40 11 0 21 -9 24 -22 7
-36 0 -140 -10 -147 -6 -3 -9 -16 -8 -28 1 -19 -1 -20 -13 -11 -8 7 -12 22 -8
38 3 19 1 27 -10 27 -20 0 -17 -38 6 -67 30 -38 24 -52 -8 -20 -39 38 -90 47
-147 25 -44 -16 -49 -23 -46 -55 2 -12 0 -13 -7 -1 -19 27 -23 -26 -5 -63 18
-39 38 -50 24 -13 -10 25 -4 75 11 94 5 6 17 9 25 6 11 -4 14 -2 9 5 -11 19
25 14 46 -5 16 -14 23 -15 38 -5 23 14 51 6 44 -13 -3 -7 -1 -16 4 -19 6 -3 8
-15 5 -25 -4 -17 -12 -19 -63 -14 -51 4 -60 2 -79 -18 -11 -13 -21 -33 -21
-45 0 -12 -6 -25 -12 -27 -8 -4 -7 -6 3 -6 11 -1 19 10 23 29 10 51 96 63 117
16 8 -17 9 -15 6 12 -3 27 -1 31 9 20 10 -10 11 -28 2 -83 -6 -38 -14 -79 -19
-90 -6 -12 -6 -39 -1 -67 5 -27 5 -45 1 -42 -12 7 -11 -3 2 -27 9 -18 34 -131
44 -204 2 -16 9 -54 14 -83 6 -29 10 -56 10 -60 -1 -4 0 -9 1 -12 1 -3 3 -23
5 -45 1 -22 6 -53 10 -69 6 -24 5 -27 -6 -20 -25 16 -75 30 -89 26 -8 -3 11
-12 41 -21 l54 -17 0 -97 c0 -53 -3 -97 -6 -97 -4 0 -27 11 -50 25 -24 14 -50
25 -56 25 -28 0 -10 -17 50 -46 l62 -31 1 -64 c0 -35 -4 -72 -8 -81 -11 -22
23 -33 52 -18 28 15 35 7 20 -20 -6 -12 -10 -24 -7 -26 2 -3 10 9 17 26 11 26
10 33 -2 43 -21 17 -38 114 -38 216 0 148 -19 309 -60 522 l-41 207 16 103 c9
57 28 136 42 174 22 59 26 87 27 180 0 61 -3 128 -8 150 l-10 40 -5 -33 c-7
-40 -25 -43 -29 -6 -2 15 -15 42 -28 59 -13 18 -21 35 -17 38 3 4 1 7 -6 7 -8
0 -10 7 -6 21 5 13 3 19 -3 15 -5 -3 -13 -18 -16 -32 -8 -30 16 -74 39 -74 8
0 15 -6 15 -14 0 -8 -10 -13 -25 -13 -13 0 -22 3 -20 8 3 4 0 11 -6 15 -8 4
-9 3 -5 -4 12 -19 -5 -14 -40 13 -32 25 -61 34 -49 16 3 -6 -9 -8 -29 -4 -30
5 -39 1 -63 -24 -15 -16 -33 -38 -39 -48 -18 -31 -25 -13 -13 31 15 55 21 60
89 74 47 10 67 10 87 1 21 -10 27 -9 39 6 22 30 17 43 -18 42 -31 -1 -32 -1
-8 -9 l25 -8 -24 -1 c-13 -1 -40 4 -60 10 -34 10 -41 8 -84 -21 -50 -34 -67
-56 -67 -90 0 -12 -4 -18 -10 -15 -5 3 -10 19 -10 35 0 22 -4 28 -15 24 -30
-12 -32 54 -4 159 13 50 35 61 59 32 10 -12 9 -22 -4 -50 -10 -19 -14 -40 -10
-47 4 -6 3 -8 -4 -4 -6 4 -10 -1 -10 -11 1 -10 -2 -29 -7 -43 -7 -24 -6 -23
33 10 22 19 41 40 41 46 1 17 32 40 71 54 43 15 120 -2 120 -26 0 -8 4 -13 9
-10 5 4 21 2 36 -4 19 -7 26 -7 23 1 -7 20 -92 59 -133 60 l-40 2 35 7 c26 6
21 7 -20 4 -42 -3 -60 -10 -74 -27 -10 -12 -20 -21 -22 -19 -2 1 -4 -1 -5 -5
-1 -12 -21 -33 -30 -33 -15 0 -10 26 11 53 17 22 19 29 8 46 -6 11 -23 25 -36
31 -32 14 -57 -8 -74 -62 -17 -57 -35 -68 -43 -26 -9 45 18 111 59 143 17 14
36 29 41 33 26 21 110 45 153 45 91 -1 172 -17 172 -35 0 -5 4 -7 9 -3 15 8
82 -55 97 -92 29 -68 3 -163 -47 -176 -19 -5 -21 -3 -16 28 4 21 1 36 -6 39
-8 3 -5 10 7 20 14 11 16 16 5 15 -27 -1 -53 -15 -42 -22 7 -4 10 -26 8 -50
-3 -40 17 -97 33 -97 18 0 84 65 108 106 20 34 27 59 26 97 -1 66 -5 90 -16
99 -13 9 -18 66 -6 73 16 10 11 25 -8 25 -24 0 -44 35 -36 66 6 23 4 25 -22
23 -47 -3 -74 10 -74 37 0 24 -18 32 -35 15 -11 -10 -75 -3 -75 8 0 4 -6 15
-13 25 -12 16 -14 16 -26 2z m-28 -43 c-16 -6 -17 -33 -3 -33 6 0 13 6 16 14
3 9 12 12 21 9 11 -4 14 -2 9 5 -8 14 -5 15 19 6 11 -5 13 -9 5 -14 -8 -5 -6
-11 5 -20 13 -10 15 -9 15 6 1 18 1 18 16 -1 10 -12 18 -16 21 -9 3 9 12 8 34
-3 16 -8 27 -19 24 -24 -4 -5 0 -6 8 -3 8 3 20 -2 27 -10 7 -9 17 -13 23 -9 6
3 7 1 3 -6 -4 -6 1 -19 12 -29 10 -9 24 -30 31 -45 l11 -29 -41 36 c-77 66
-204 97 -314 77 -55 -10 -205 -76 -205 -90 0 -3 -10 -17 -21 -31 l-20 -25 6
25 c11 38 56 100 69 93 6 -3 8 -3 4 2 -4 4 -3 14 3 22 13 15 49 18 49 3 0 -5
-5 -10 -12 -10 -6 0 -9 -2 -6 -5 3 -3 12 -3 21 1 13 4 14 11 6 32 -8 22 -8 25
2 15 18 -18 32 -16 25 2 -3 8 0 16 7 16 7 1 22 3 33 4 12 1 26 5 32 9 6 3 13
2 17 -4 10 -16 22 -12 28 10 3 11 11 20 19 19 10 0 10 -2 1 -6z m112 -108
c120 -32 198 -108 211 -206 3 -24 1 -55 -5 -69 -8 -21 -10 -17 -10 31 -3 257
-467 307 -587 63 -21 -43 -25 -64 -21 -101 3 -28 1 -40 -4 -32 -14 23 -10 117
7 157 53 128 241 200 409 157z m-225 -2006 c0 -16 -4 -28 -9 -25 -8 5 -3 56 5
56 2 0 4 -14 4 -31z"/>
<path d="M925 4050 c-3 -6 3 -10 14 -10 10 0 28 -3 38 -6 15 -6 16 -4 6 6 -16
17 -50 23 -58 10z"/>
<path d="M815 4041 c-12 -12 -2 -17 25 -13 16 2 28 8 25 12 -5 9 -42 9 -50 1z"/>
<path d="M1040 4031 c0 -5 9 -11 21 -14 16 -4 18 -3 8 9 -13 16 -29 19 -29 5z"/>
<path d="M758 4114 c-16 -8 -28 -17 -28 -19 0 -7 60 17 66 26 8 13 -7 10 -38
-7z"/>
<path d="M918 3825 c-2 -22 0 -35 7 -35 14 0 18 57 5 65 -4 3 -10 -11 -12 -30z"/>
<path d="M878 3844 c-8 -7 3 -54 13 -54 12 0 12 47 0 54 -4 3 -10 3 -13 0z"/>
<path d="M958 3820 c-5 -32 6 -41 16 -14 9 23 7 44 -3 44 -5 0 -11 -13 -13
-30z"/>
<path d="M1001 3826 c-6 -16 -14 -33 -17 -37 -3 -5 0 -9 6 -9 12 0 33 48 27
64 -3 6 -10 -2 -16 -18z"/>
<path d="M830 3837 c0 -16 21 -57 29 -57 13 0 2 37 -15 51 -8 6 -14 9 -14 6z"/>
<path d="M1030 3801 c-16 -23 -18 -31 -7 -31 13 0 42 48 33 57 -2 2 -14 -10
-26 -26z"/>
<path d="M800 3804 c0 -15 22 -44 30 -39 6 4 5 14 -3 25 -11 19 -27 27 -27 14z"/>
<path d="M1066 3785 c-27 -25 -32 -35 -18 -35 5 0 18 14 30 30 27 36 24 38
-12 5z"/>
<path d="M1079 3750 c-31 -25 -12 -26 21 0 14 11 20 20 14 20 -7 0 -22 -9 -35
-20z"/>
<path d="M914 3495 c3 -10 -1 -15 -12 -15 -9 0 -30 -13 -45 -30 -18 -19 -34
-27 -44 -23 -10 4 -14 2 -10 -4 4 -6 1 -14 -5 -17 -10 -3 -8 -9 4 -19 10 -8
19 -26 20 -40 1 -15 8 -29 15 -31 9 -4 10 -12 3 -31 -13 -33 -13 -55 0 -55 15
0 22 62 11 109 -13 59 1 88 52 103 27 8 47 9 66 2 23 -9 29 -7 44 12 21 29 21
31 -3 37 -11 3 -18 1 -14 -4 8 -14 -19 -10 -40 6 -26 20 -50 19 -42 0z"/>
<path d="M890 3430 c-5 -14 -4 -130 2 -130 12 0 17 55 9 95 -5 22 -10 38 -11
35z"/>
<path d="M926 3398 c-5 -16 -5 -36 0 -45 7 -16 8 -15 11 5 3 12 3 32 0 45 -3
21 -4 20 -11 -5z"/>
<path d="M963 3388 c1 -21 5 -38 10 -38 9 0 8 30 -3 55 -7 15 -8 11 -7 -17z"/>
<path d="M1000 3370 c0 -16 4 -30 8 -30 5 0 7 14 4 30 -2 17 -6 30 -8 30 -2 0
-4 -13 -4 -30z"/>
<path d="M794 3337 c-2 -7 2 -30 11 -52 l15 -40 -7 35 c-3 19 -6 43 -5 53 1
20 -6 23 -14 4z"/>
<path d="M927 3301 c-11 -4 5 -7 38 -7 33 0 49 3 38 7 -10 4 -27 8 -38 8 -11
0 -28 -4 -38 -8z"/>
<path d="M1020 3218 c0 -7 4 -19 9 -27 7 -10 9 -7 8 12 -2 26 -17 39 -17 15z"/>
<path d="M969 3092 c-9 -1 -22 -14 -30 -28 -11 -21 -11 -27 1 -34 8 -5 16 -22
18 -39 2 -25 0 -30 -12 -25 -9 4 -16 18 -16 34 0 16 -4 32 -10 35 -6 4 -10
-27 -10 -85 0 -63 3 -89 11 -84 6 3 8 15 6 26 -4 12 5 29 24 49 16 16 29 40
29 53 0 14 9 28 25 36 28 15 33 35 11 43 -9 4 -21 -5 -31 -19 -13 -20 -19 -23
-31 -14 -13 12 -10 35 5 26 10 -7 34 10 30 21 -2 5 -11 7 -20 5z"/>
<path d="M840 2860 c0 -5 6 -10 14 -10 8 0 18 5 21 10 3 6 -3 10 -14 10 -12 0
-21 -4 -21 -10z"/>
<path d="M917 2795 c-5 -11 0 -15 16 -15 12 0 18 4 12 8 -5 4 -13 11 -16 15
-4 4 -9 1 -12 -8z"/>
<path d="M865 2786 c-18 -13 -18 -14 8 -9 15 3 24 9 21 14 -7 12 -7 12 -29 -5z"/>
<path d="M910 2738 c0 -11 8 -18 20 -18 18 0 20 -7 21 -62 0 -56 4 -134 13
-263 2 -29 7 -41 21 -44 13 -2 16 1 12 12 -3 9 -1 18 6 21 9 3 9 5 0 5 -8 1
-13 17 -13 45 0 74 -32 280 -46 301 -10 14 -14 15 -14 5 0 -13 -2 -13 -10 0
-8 13 -10 12 -10 -2z"/>
<path d="M1882 2533 c-22 -44 -185 -484 -181 -488 3 -2 14 -6 25 -8 10 -2 27
-7 37 -12 10 -4 20 -6 22 -3 2 2 23 92 45 199 22 106 47 223 55 259 14 66 14
86 -3 53z"/>
<path d="M1310 2496 c0 -20 123 -492 130 -500 5 -4 19 -1 31 8 13 9 31 16 41
16 10 0 18 3 18 6 0 9 -203 459 -211 469 -5 5 -9 5 -9 1z m168 -444 c3 -16 -1
-20 -12 -16 -19 7 -22 48 -3 42 6 -3 13 -14 15 -26z"/>
<path d="M960 2220 c0 -14 6 -20 23 -19 18 1 18 2 4 6 -11 3 -16 11 -13 19 3
8 1 14 -4 14 -6 0 -10 -9 -10 -20z"/>
<path d="M897 2188 c-4 -15 1 -18 27 -18 18 0 37 -5 44 -12 9 -9 12 -8 12 5 0
9 -7 17 -15 17 -8 0 -15 4 -15 9 0 5 -11 11 -24 13 -18 4 -26 0 -29 -14z"/>
<path d="M2135 2064 c-110 -68 -204 -125 -210 -127 -5 -2 -2 -11 7 -20 14 -14
18 -15 28 -2 7 8 17 12 22 9 14 -9 -23 -46 -39 -40 -11 4 -11 1 -3 -14 9 -16
8 -20 -5 -20 -9 0 -18 -7 -21 -15 -8 -19 15 -48 33 -41 8 3 13 -2 13 -12 0 -9
14 -44 30 -76 17 -32 30 -65 30 -72 0 -8 2 -14 5 -14 11 0 431 91 440 95 6 3
-95 3 -222 1 -233 -4 -233 -4 -233 18 0 11 -11 43 -23 71 l-23 50 31 25 c58
47 355 303 355 306 0 10 -28 -6 -215 -122z"/>
<path d="M1535 2012 c-28 -11 -61 -24 -73 -31 -12 -7 -27 -9 -32 -6 -6 4 -9 1
-8 -6 2 -6 -3 -14 -11 -17 -10 -3 -11 0 -5 9 9 16 -14 1 -58 -39 -24 -22 -29
-23 -65 -12 -21 7 -43 17 -49 21 -8 6 -13 0 -17 -18 -4 -17 -37 -59 -82 -103
-68 -68 -103 -110 -91 -110 2 0 18 14 34 30 17 17 33 30 36 30 13 0 98 94 108
119 6 15 12 21 15 14 3 -7 11 -13 18 -13 25 0 24 -31 -2 -73 -22 -35 -22 -39
-5 -24 25 22 35 18 52 -23 11 -26 10 -33 -5 -50 -10 -11 -21 -17 -25 -15 -4 2
-15 -4 -25 -15 -10 -11 -21 -18 -25 -15 -4 2 -18 -7 -31 -21 -13 -14 -49 -39
-79 -55 -30 -16 -73 -41 -95 -54 -69 -42 -108 -57 -167 -65 -58 -9 -138 -38
-138 -51 0 -4 -10 -5 -22 -2 -18 5 -20 3 -11 -7 9 -10 21 -9 60 3 26 9 93 28
148 42 55 15 133 44 174 66 40 22 76 38 78 35 7 -7 -78 -71 -95 -71 -9 0 -17
-5 -17 -12 0 -7 -7 -18 -15 -25 -12 -11 -12 -11 -1 5 7 9 11 17 9 17 -13 0
-177 -80 -183 -90 -3 -5 -11 -10 -16 -10 -6 0 -8 4 -5 9 3 5 -13 4 -36 -2 -31
-8 -43 -7 -46 1 -2 7 -18 12 -35 12 l-31 0 23 -21 c20 -19 27 -20 61 -10 54
16 66 15 49 -5 -7 -8 -21 -13 -31 -10 -16 4 -17 2 -7 -10 18 -21 33 -18 132
32 93 46 225 138 255 177 10 12 40 46 69 75 57 57 55 57 65 -13 3 -16 7 -13
25 17 13 21 17 37 10 35 -6 -1 -13 9 -15 23 -4 24 -4 25 16 7 19 -18 21 -18
30 0 14 24 -5 63 -20 42 -8 -11 -9 -11 -5 2 3 9 0 22 -6 28 -23 23 4 23 29 0
25 -24 26 -24 40 -5 10 14 11 23 4 30 -8 8 -14 6 -20 -4 -8 -12 -10 -11 -10 7
0 13 -9 28 -19 35 -16 10 -18 16 -9 32 10 19 10 20 -5 7 -10 -7 -17 -22 -17
-33 0 -10 -4 -16 -10 -13 -5 3 -10 13 -10 21 0 17 65 91 94 106 14 7 9 -2 -14
-27 -19 -21 -30 -35 -23 -31 7 4 10 0 7 -11 -2 -10 9 -33 27 -52 28 -30 32
-32 46 -18 14 14 13 19 -12 51 -15 20 -32 36 -37 36 -6 0 -5 6 2 15 11 13 16
10 41 -21 15 -19 29 -40 31 -46 3 -7 11 -6 25 2 l21 14 -25 40 c-15 23 -30 44
-35 47 -12 8 32 36 84 55 45 16 59 18 40 6 -8 -6 -10 -19 -6 -40 5 -24 12 -32
32 -34 31 -4 42 -28 13 -28 -12 0 -21 -4 -21 -8 0 -5 14 -7 31 -4 23 3 29 8
23 21 -3 9 -12 35 -20 59 -12 40 -12 42 6 42 11 0 19 -3 19 -7 -1 -5 -1 -20 0
-35 1 -21 5 -25 21 -21 14 4 20 0 20 -11 0 -10 -5 -13 -17 -9 -13 5 -15 2 -10
-11 4 -10 7 -20 7 -22 0 -2 11 -4 25 -4 29 0 29 -1 11 68 l-14 52 35 0 c19 0
47 -7 61 -16 25 -14 27 -20 23 -66 -2 -35 1 -53 10 -59 22 -14 29 -11 29 14 0
12 2 34 3 48 l2 27 38 -30 c55 -44 56 -28 2 20 -57 50 -117 72 -220 78 -63 4
-91 1 -130 -14z"/>
<path d="M963 1987 c15 -6 27 -19 27 -29 0 -10 4 -18 9 -18 14 0 8 34 -9 47
-8 7 -24 12 -35 12 -16 -1 -14 -3 8 -12z"/>
<path d="M1724 1985 c-10 -24 6 -85 20 -85 8 0 16 -7 20 -15 11 -31 24 -15 15
19 -5 18 -8 43 -7 56 4 27 -39 49 -48 25z"/>
<path d="M1480 1971 c-12 -8 -10 -17 10 -60 13 -28 25 -51 26 -51 2 0 14 5 27
11 l24 11 -23 49 c-24 49 -36 57 -64 40z m60 -72 c0 -5 -7 -9 -15 -9 -15 0
-20 12 -9 23 8 8 24 -1 24 -14z"/>
<path d="M1070 1901 c0 -17 5 -31 10 -31 6 0 10 11 10 24 0 14 -4 28 -10 31
-6 4 -10 -7 -10 -24z"/>
<path d="M1864 1906 c-10 -25 0 -61 17 -64 11 -2 19 6 23 23 10 40 -27 76 -40
41z"/>
<path d="M1060 1853 c0 -5 5 -15 10 -23 8 -12 10 -11 10 8 0 12 -4 22 -10 22
-5 0 -10 -3 -10 -7z"/>
<path d="M1742 1834 c-6 -12 -18 -15 -36 -12 -14 3 -26 2 -26 -1 0 -5 -114
-45 -131 -46 -3 0 -13 -8 -23 -17 -16 -16 -36 -23 -58 -19 -5 0 -8 -9 -8 -21
0 -21 0 -21 15 -2 10 14 14 15 15 5 0 -11 4 -9 15 5 13 17 13 16 3 -13 -7 -17
-16 -30 -20 -27 -4 3 -8 -4 -8 -15 0 -12 -6 -21 -12 -21 -9 0 -8 -3 2 -10 12
-7 13 -15 3 -39 -9 -24 -8 -31 3 -35 8 -3 14 1 14 8 0 8 6 16 13 19 10 4 10 7
0 18 -7 7 -13 20 -13 29 0 30 132 108 217 129 21 5 47 13 59 16 17 5 35 -7 87
-60 72 -71 97 -110 99 -153 0 -32 -20 -274 -27 -317 -4 -26 -4 -27 3 -5 6 18
15 24 31 23 38 -5 62 14 57 45 -2 15 -5 35 -5 45 -1 9 -7 17 -15 17 -27 0 -28
103 -1 125 19 15 28 84 14 102 -7 8 -22 33 -34 56 -12 23 -27 41 -33 40 -7 -2
-12 4 -12 12 0 9 -7 18 -15 21 -8 3 -17 14 -20 24 -4 11 -12 17 -21 13 -10 -3
-14 2 -14 18 0 18 -3 20 -9 10 -6 -10 -11 -6 -19 15 -8 23 -11 25 -12 9 -2
-17 -3 -16 -10 5 -6 18 -8 20 -9 7 -1 -10 -5 -15 -11 -12 -5 3 -10 2 -10 -4 0
-6 -7 -8 -16 -4 -8 3 -13 12 -10 19 7 19 -1 17 -12 -2z m246 -493 c10 -6 9
-11 -5 -22 -10 -7 -15 -9 -11 -5 4 5 3 15 -3 23 -13 14 -1 17 19 4z"/>
<path d="M1007 1833 c-4 -3 -7 -15 -7 -26 0 -15 -3 -17 -14 -8 -10 9 -15 8
-19 -3 -8 -20 3 -27 24 -15 13 6 19 6 20 -1 1 -5 2 -16 3 -22 1 -13 -17 -38
-28 -38 -3 0 -6 6 -6 14 0 8 -4 17 -8 20 -5 3 -6 -8 -4 -25 3 -21 1 -29 -9
-27 -7 2 -14 -3 -15 -9 -3 -26 -6 -27 -14 -8 -9 20 -9 20 -9 0 -1 -24 -41 -73
-74 -90 -41 -21 -64 -3 -77 60 -6 31 -11 80 -10 108 3 74 2 76 -20 40 -19 -32
-84 -68 -102 -57 -11 7 -31 -16 -59 -71 l-21 -40 26 24 c14 13 28 32 32 43 3
12 15 18 33 18 15 0 42 5 60 11 18 6 35 9 38 6 8 -9 -62 -77 -80 -77 -9 0 -19
-4 -22 -10 -3 -5 -18 -10 -33 -10 -15 0 -38 -7 -50 -16 -17 -12 -22 -12 -23
-2 0 7 -7 -9 -15 -37 -10 -36 -11 -58 -4 -81 6 -17 8 -38 5 -46 -4 -10 7 -29
29 -52 22 -21 36 -45 36 -60 0 -14 11 -33 26 -45 l25 -20 -25 -37 c-28 -42
-26 -55 6 -46 14 3 19 2 14 -7 -4 -6 -12 -9 -17 -6 -5 3 -6 -1 -3 -9 8 -20 28
-20 43 -2 9 11 9 15 -1 19 -7 3 -4 6 8 6 11 1 38 16 60 34 33 29 136 77 163
77 5 0 8 -11 7 -25 l-3 -25 34 30 c45 40 65 38 27 -2 -50 -54 -109 -132 -107
-140 5 -13 -80 -87 -91 -81 -6 3 -8 3 -4 -2 4 -4 -3 -16 -15 -25 -26 -21 -143
-90 -151 -90 -8 0 5 32 25 61 10 14 15 30 11 34 -4 5 -1 5 6 1 10 -6 10 -11 1
-22 -13 -16 -4 -33 10 -18 5 5 21 38 37 74 15 36 34 72 41 81 17 20 17 39 0
39 -17 0 -50 -57 -43 -75 6 -18 -23 -77 -35 -70 -5 4 0 16 11 27 11 12 20 25
20 30 0 14 -16 9 -35 -12 -10 -11 -23 -20 -30 -20 -23 0 -48 -38 -43 -65 3
-14 1 -28 -3 -31 -14 -8 -11 -61 5 -99 10 -24 24 -36 48 -44 63 -19 109 -38
108 -44 0 -4 -12 -31 -26 -62 -23 -49 -24 -58 -13 -90 12 -32 29 -48 29 -27 0
9 311 308 387 372 39 33 66 90 43 90 -5 0 -10 -6 -10 -12 0 -7 -20 -25 -44
-41 -24 -15 -65 -47 -92 -72 -26 -25 -51 -45 -55 -45 -3 0 -12 -13 -19 -30 -7
-16 -18 -30 -24 -30 -7 0 -29 -18 -51 -39 -21 -22 -41 -39 -44 -39 -18 5 -51
-16 -51 -31 0 -9 -5 -22 -12 -29 -6 -6 -9 -14 -6 -18 4 -3 19 13 33 35 15 22
32 38 37 35 5 -3 26 7 46 22 20 15 3 -5 -38 -43 -83 -78 -101 -78 -73 2 8 26
12 50 7 54 -5 3 -14 15 -20 26 -6 11 -21 21 -33 23 -26 4 -27 13 -1 35 20 16
21 16 39 -14 l18 -30 26 43 c14 24 55 104 92 178 102 203 156 287 237 365 78
76 81 68 14 -34 -68 -104 -116 -199 -104 -203 7 -3 9 -12 5 -21 -3 -9 -13 -14
-21 -11 -8 3 -17 1 -21 -5 -3 -6 -1 -11 4 -11 6 0 11 -9 11 -20 0 -11 -5 -19
-11 -18 -7 2 -21 -13 -31 -32 l-20 -35 27 30 c27 30 27 30 -3 -25 -21 -37 -38
-55 -51 -56 -12 -1 -25 -2 -30 -3 -13 -2 -20 -38 -9 -49 5 -5 -13 -27 -47 -56
-30 -26 -55 -54 -55 -61 0 -30 21 -24 61 17 23 24 46 42 50 41 5 -2 6 3 3 10
-2 7 7 24 21 37 14 13 25 29 25 36 0 6 6 14 14 17 7 3 24 30 37 61 27 66 41
73 28 14 -6 -23 -8 -48 -6 -57 3 -9 5 -5 6 10 0 14 5 29 10 35 5 5 14 38 19
74 9 58 77 251 101 290 18 27 22 3 7 -35 -9 -20 -15 -39 -14 -43 1 -4 -4 -20
-11 -36 -6 -16 -13 -69 -14 -117 -2 -51 -8 -94 -15 -101 -14 -14 -20 -1 -25
62 -2 27 -4 15 -4 -27 l0 -72 36 28 c20 16 77 71 127 123 69 70 96 105 108
141 23 68 20 75 -16 41 -18 -16 -44 -35 -57 -43 -22 -12 -26 -11 -38 5 -12 16
-13 16 -13 1 0 -25 27 -32 67 -18 19 7 36 11 38 9 9 -8 -8 -47 -22 -52 -11 -5
-13 -2 -9 10 5 12 1 14 -17 9 -58 -18 -86 -38 -96 -68 -9 -28 -9 -30 3 -14 7
9 23 17 35 17 12 0 31 5 42 10 31 17 22 4 -21 -30 -22 -17 -48 -32 -59 -33
-14 -1 -19 -8 -18 -25 1 -17 -5 -27 -20 -33 -21 -8 -21 -7 -8 24 7 18 16 48
19 67 5 30 5 32 -4 11 -12 -28 -25 -22 -15 8 3 12 12 21 19 21 16 0 33 62 40
145 6 72 29 144 40 127 4 -7 6 -45 4 -85 -3 -71 -3 -72 22 -72 17 0 32 12 51
40 28 40 28 40 6 45 -25 7 -67 74 -67 109 0 14 7 33 17 43 11 12 12 18 4 18
-7 0 -18 -14 -24 -30 -8 -22 -41 -51 -114 -102 -57 -39 -103 -72 -103 -75 0
-2 15 4 33 13 30 16 31 16 18 0 -27 -32 -235 -125 -249 -111 -2 2 -17 -2 -33
-10 -42 -22 -93 -18 -135 10 -37 25 -23 36 18 14 34 -18 88 -20 88 -3 0 17
-17 19 -22 3 -5 -14 -89 24 -114 52 -17 19 -17 20 1 13 12 -5 16 -4 12 3 -5 7
1 9 15 6 22 -5 21 -4 -7 28 -48 54 -49 55 -40 40 5 -9 4 -12 -3 -8 -5 4 -8 16
-5 26 3 13 -2 21 -15 25 -24 8 -46 79 -24 82 4 0 20 6 35 12 16 7 33 12 38 12
5 0 21 7 34 16 24 15 25 15 25 -2 0 -11 -5 -39 -11 -63 -5 -24 -7 -63 -3 -86
5 -36 9 -42 25 -38 10 3 16 9 13 14 -3 5 2 6 10 3 12 -5 16 0 16 20 0 29 -3
31 -32 15 -13 -7 -18 -7 -14 -1 3 6 2 13 -4 17 -5 3 -10 13 -10 21 0 8 4 13 9
9 6 -3 12 12 14 32 l4 38 1 -42 c2 -42 3 -42 28 -32 15 5 36 7 48 3 14 -5 7 6
-22 34 -43 41 -52 68 -30 90 21 21 30 13 23 -19 -4 -19 -3 -29 2 -26 5 3 17
-8 27 -24 11 -19 23 -28 32 -25 8 3 21 9 30 12 12 5 15 1 12 -17 -2 -18 -13
-26 -47 -36 -25 -7 -49 -17 -55 -23 -15 -15 5 -13 47 5 43 18 76 20 61 5 -6
-6 -24 -13 -40 -16 -50 -9 -41 -17 11 -9 61 9 64 10 59 33 -4 12 4 21 27 29
24 10 30 10 21 1 -7 -7 -12 -19 -12 -28 1 -13 3 -12 14 2 7 10 16 15 19 12 9
-9 118 70 171 125 27 27 54 47 59 44 6 -3 7 -1 3 5 -4 7 -4 18 1 25 11 16 32
77 27 77 -3 0 -36 -33 -75 -72 -39 -40 -71 -71 -72 -70 -5 10 -55 -22 -52 -32
5 -13 -75 -66 -98 -66 -9 0 -19 -4 -22 -10 -3 -5 -13 -10 -22 -10 -13 0 -13 3
-3 16 8 8 9 14 4 13 -28 -5 -23 4 17 31 44 29 83 67 169 163 44 49 48 67 5 21
-21 -23 -27 -25 -40 -14 -13 11 -13 15 -3 21 10 7 10 9 1 9 -7 0 -10 7 -7 15
6 16 2 20 -9 8z m167 -108 c-9 -14 -25 -30 -35 -35 -35 -19 -33 -9 4 25 45 42
53 44 31 10z m-190 -159 c-3 -9 -10 -13 -16 -10 -5 3 -4 12 3 20 15 18 22 13
13 -10z m269 -166 c3 -11 1 -23 -4 -26 -5 -3 -9 -1 -9 5 0 5 -3 16 -6 25 -3 9
-2 16 4 16 5 0 12 -9 15 -20z m-108 -129 c-3 -12 -11 -21 -16 -21 -6 0 -7 6
-2 13 4 6 8 15 9 20 1 4 2 10 3 14 0 3 4 4 7 0 3 -3 3 -15 -1 -26z m-443 -13
c-6 -6 -17 -13 -24 -14 -7 -2 -24 -6 -38 -10 -25 -7 -25 -7 -6 14 12 14 31 22
50 22 23 0 27 -3 18 -12z m152 -175 c-34 -45 -43 -53 -112 -99 -109 -72 -213
-112 -125 -48 21 15 55 41 76 57 21 16 44 30 52 31 7 1 35 23 62 49 59 57 88
63 47 10z m-65 -135 c-23 -35 -44 -65 -46 -68 -3 -3 -10 3 -17 13 -16 21 -32
22 -44 1 -13 -23 -72 -29 -72 -9 0 8 9 15 20 15 22 0 70 27 83 46 4 7 21 15
37 19 17 4 30 10 30 14 0 6 33 27 48 30 1 1 -16 -27 -39 -61z m99 -4 c-11 -11
-18 -12 -22 -5 -4 6 -2 11 3 11 6 0 10 3 10 8 -3 19 2 25 13 14 9 -9 9 -16 -4
-28z"/>
<path d="M602 1763 c-10 -16 -24 -38 -31 -50 -21 -41 -5 -24 27 27 33 54 36
68 4 23z"/>
<path d="M1620 1700 c-22 -7 -21 -8 13 -9 49 -1 48 -21 -2 -21 -28 0 -45 -7
-62 -25 -13 -13 -30 -25 -36 -25 -7 0 -13 -6 -13 -13 0 -12 40 -19 50 -8 25
28 121 47 105 20 -4 -5 -1 -9 5 -9 6 0 8 -4 5 -10 -3 -5 1 -10 9 -10 9 0 21 9
28 20 18 28 28 25 28 -10 0 -16 -4 -30 -10 -30 -5 0 -10 -7 -10 -15 0 -13 4
-13 28 2 15 9 28 18 30 19 2 1 -6 21 -17 45 -11 24 -22 52 -25 62 -4 12 -16
17 -40 17 -19 0 -40 2 -48 4 -7 2 -24 0 -38 -4z"/>
<path d="M1393 1685 c-17 -19 -16 -25 5 -25 10 0 23 -5 30 -12 6 -6 15 -8 19
-4 4 4 1 11 -7 16 -10 7 -11 10 -2 10 6 0 12 5 12 12 0 9 -3 9 -12 0 -17 -17
-39 -15 -32 3 8 19 3 19 -13 0z"/>
<path d="M1810 1671 c0 -5 5 -13 10 -16 6 -4 8 -10 6 -14 -3 -4 -1 -25 5 -45
8 -31 13 -35 25 -26 7 7 11 17 7 23 -3 6 5 2 20 -9 17 -13 27 -30 29 -53 2
-19 9 -37 17 -39 11 -4 13 5 8 47 -7 58 -31 105 -61 120 -36 17 -66 23 -66 12z"/>
<path d="M1408 1616 c-10 -7 -18 -18 -18 -24 0 -14 -36 -25 -51 -16 -8 4 -9 3
-5 -4 4 -7 17 -13 29 -13 17 -1 18 -2 5 -6 -10 -2 -18 -11 -18 -19 0 -21 8
-18 42 16 16 17 27 30 24 30 -4 0 1 11 10 25 18 27 9 32 -18 11z"/>
<path d="M1580 1590 c0 -5 16 -10 36 -10 21 0 33 4 29 10 -3 6 -19 10 -36 10
-16 0 -29 -4 -29 -10z"/>
<path d="M1274 1566 c-9 -24 16 -85 42 -102 13 -9 26 -23 29 -32 2 -10 21 -35
40 -57 20 -22 47 -54 60 -71 28 -35 65 -133 61 -161 -2 -10 -1 -13 1 -6 6 17
60 -1 103 -35 19 -16 53 -39 75 -50 38 -20 58 -35 132 -102 17 -16 33 -26 37
-23 8 9 71 -6 92 -22 16 -13 17 -16 4 -24 -10 -7 -20 -5 -32 6 -16 14 -18 14
-28 -12 -6 -15 -37 -54 -70 -86 -33 -32 -60 -61 -60 -65 0 -3 -17 -23 -38 -43
-114 -111 -295 -328 -343 -414 -29 -50 -64 -107 -76 -126 -13 -19 -21 -41 -19
-48 3 -7 -2 -29 -11 -48 -26 -55 -5 -55 40 0 220 262 382 400 532 451 66 22
191 101 228 144 29 33 67 58 67 44 0 -4 -14 -23 -30 -44 -17 -21 -35 -52 -41
-69 -6 -17 -15 -31 -20 -31 -5 0 -9 -9 -9 -20 0 -53 -159 -360 -187 -360 -7 0
-13 -11 -13 -25 0 -25 -14 -33 -25 -15 -3 5 -16 15 -28 21 -18 9 -17 6 6 -15
32 -32 33 -39 6 -82 -22 -35 -35 -42 -41 -22 -3 7 -7 6 -11 -5 -5 -14 -1 -17
22 -17 22 0 31 7 41 30 7 16 24 33 39 39 17 6 20 10 9 10 -24 1 -22 18 5 55
39 51 107 167 107 182 0 8 7 17 15 20 8 4 15 11 15 18 0 18 61 159 75 176 8 8
14 18 14 23 1 4 1 8 2 10 0 1 2 10 4 19 2 10 18 39 36 65 18 26 32 59 31 72
-3 32 -30 61 -56 60 -17 -1 -18 -2 -3 -6 22 -6 22 -14 -4 -60 -29 -52 -50 -75
-65 -69 -7 3 -14 0 -16 -6 -2 -6 -19 -12 -38 -15 -19 -2 -40 -10 -46 -18 -6
-8 -14 -12 -17 -9 -10 10 -47 -6 -72 -32 -13 -13 -31 -24 -39 -24 -8 0 -18 -4
-21 -10 -3 -5 -14 -10 -24 -10 -19 0 -279 -168 -301 -195 -26 -32 1 -27 70 13
38 22 70 39 70 37 0 -8 -138 -116 -147 -114 -20 3 -34 -2 -28 -11 3 -5 -3 -17
-15 -27 -11 -10 -20 -22 -20 -27 0 -11 -42 -76 -79 -121 -29 -36 -30 -38 37
95 29 58 69 129 90 157 50 71 291 337 308 341 8 2 14 7 14 11 0 14 175 181
178 170 2 -5 -8 -25 -22 -44 -35 -46 -33 -55 5 -19 46 44 62 80 55 127 -5 30
-2 44 10 58 11 13 14 27 9 46 -11 46 -57 143 -68 143 -5 0 -4 6 3 14 8 11 9
20 1 33 -9 16 -11 14 -21 -14 -7 -18 -15 -31 -20 -28 -11 7 8 -87 21 -100 10
-9 7 19 -6 62 -5 14 13 28 22 19 3 -3 7 -25 8 -48 1 -24 6 -69 10 -100 7 -53
6 -58 -12 -58 -12 0 -25 13 -36 35 -19 40 -21 49 -9 41 5 -3 3 23 -4 56 -7 34
-11 64 -9 67 2 3 -12 6 -31 6 -19 0 -34 -4 -35 -10 -1 -11 31 -24 47 -18 7 2
8 -18 3 -63 -4 -36 -4 -75 -1 -86 5 -19 4 -19 -26 -4 -38 19 -72 66 -72 98 0
13 -7 34 -16 47 -12 17 -13 26 -5 34 6 6 11 18 11 27 0 13 -1 13 -10 0 -5 -8
-10 -10 -10 -5 0 6 -4 4 -9 -3 -5 -8 -6 -35 -4 -60 3 -35 2 -43 -6 -32 -6 8
-11 11 -11 6 0 -5 -7 -3 -15 4 -9 8 -13 21 -9 36 4 15 2 24 -6 24 -7 0 -10 -7
-7 -15 4 -8 2 -17 -3 -20 -6 -4 -10 -1 -10 4 0 6 -9 11 -21 11 -14 0 -19 5
-16 15 4 8 2 17 -3 20 -6 4 -10 2 -10 -4 0 -17 -58 12 -64 32 -2 10 -9 16 -15
12 -6 -3 -11 1 -11 9 0 8 10 16 23 18 21 3 21 5 -13 38 -19 20 -33 43 -31 54
1 10 -2 16 -8 12 -19 -12 -52 32 -45 59 4 15 2 25 -5 25 -6 0 -11 -9 -11 -20
0 -18 -1 -18 -23 3 l-22 22 22 15 c12 8 25 21 28 30 5 12 4 13 -6 3 -15 -15
-29 -16 -49 -3 -12 7 -11 13 10 35 18 19 20 24 7 19 -9 -3 -17 -10 -17 -15 0
-4 -15 -2 -32 6 -19 8 -32 21 -32 29 1 9 -2 16 -8 16 -5 0 -7 4 -3 9 3 5 1 12
-5 16 -6 3 -13 -1 -16 -9z m699 -535 c-7 -9 -22 15 -28 44 -7 30 -7 30 12 -5
10 -19 18 -37 16 -39z m177 -299 c0 -5 -9 -17 -20 -27 -22 -20 -26 -14 -10 16
11 19 30 26 30 11z"/>
<path d="M1557 1547 c15 -13 37 -27 47 -31 16 -5 17 -4 6 9 -7 8 -16 13 -20
10 -4 -2 -15 4 -25 15 -10 11 -22 20 -27 20 -5 0 3 -10 19 -23z"/>
<path d="M1780 1553 c0 -6 -14 -16 -31 -22 -36 -12 -38 -48 -3 -43 12 1 33 -2
47 -7 19 -7 27 -7 27 0 0 6 5 7 10 4 15 -9 12 -22 -6 -29 -9 -4 -23 -1 -30 5
-11 9 -24 8 -54 -6 -41 -19 -45 -23 -32 -41 10 -15 172 -49 172 -36 0 4 -9 22
-20 40 -16 25 -18 37 -10 52 16 30 2 70 -24 70 -12 0 -27 5 -34 12 -8 8 -12 8
-12 1z m25 -117 c28 -5 53 -22 44 -30 -2 -2 -31 1 -64 8 -52 10 -57 13 -40 23
11 6 22 10 25 8 4 -2 19 -6 35 -9z"/>
<path d="M2009 1471 c9 -6 12 -21 9 -45 -3 -25 0 -37 11 -41 32 -13 364 -85
369 -80 3 2 -6 9 -19 14 -13 5 -98 43 -188 85 -90 42 -171 76 -180 76 -13 0
-13 -2 -2 -9z"/>
<path d="M1468 1443 c5 -25 6 -25 13 -8 11 29 10 35 -5 35 -9 0 -12 -8 -8 -27z"/>
<path d="M1620 1414 c9 -38 17 -51 25 -42 3 3 1 17 -5 32 -5 15 -8 32 -4 37 3
5 -1 9 -9 9 -12 0 -13 -7 -7 -36z"/>
<path d="M1725 1341 c5 -16 2 -21 -10 -21 -20 0 -15 -22 6 -28 11 -3 11 -2 1
6 -11 7 -11 10 2 15 9 4 16 2 16 -4 0 -6 4 -8 9 -5 14 9 42 -5 35 -16 -4 -6 2
-8 15 -3 12 4 21 2 21 -4 0 -6 6 -11 13 -11 8 0 21 -18 30 -40 8 -22 20 -40
26 -40 16 0 25 42 10 51 -8 5 -10 9 -5 9 19 0 -41 47 -69 54 -16 4 -47 19 -68
32 -37 24 -38 24 -32 5z"/>
<path d="M1350 1325 c0 -23 -43 -105 -52 -99 -5 3 -8 2 -7 -3 4 -24 -5 -42
-42 -80 -41 -43 -44 -60 -4 -23 21 20 21 20 20 -3 0 -12 -15 -46 -32 -75 -18
-29 -33 -55 -33 -58 0 -11 -80 -113 -109 -137 -17 -14 -31 -30 -31 -35 0 -5
-48 -56 -107 -113 -60 -57 -102 -100 -95 -95 16 9 15 6 -5 -40 -9 -22 -17 -46
-18 -55 -1 -8 -10 -24 -21 -35 -29 -31 -64 -77 -64 -86 0 -14 -58 -39 -65 -27
-4 6 -5 11 -4 13 2 1 16 10 32 19 15 10 27 25 27 34 0 15 -1 15 -18 0 -23 -21
-36 -22 -28 -2 3 9 0 15 -9 15 -27 0 -16 14 38 49 28 19 67 51 85 71 l32 38
-34 -17 c-18 -9 -32 -18 -30 -20 3 -3 -12 -13 -33 -23 -43 -21 -63 -10 -33 17
18 16 23 17 30 5 7 -11 10 -12 10 -2 0 13 58 72 71 72 13 0 78 58 72 64 -3 3
2 6 13 7 10 0 14 3 7 5 -20 9 -121 -45 -149 -79 -15 -18 -41 -37 -58 -43 -17
-7 -30 -17 -28 -24 1 -6 -2 -9 -7 -5 -11 6 -41 -56 -41 -85 0 -10 7 -23 15
-30 9 -7 15 -29 15 -52 0 -30 8 -49 33 -78 17 -22 38 -40 45 -40 7 0 24 -12
38 -27 24 -26 25 -33 23 -120 -2 -77 0 -97 14 -110 15 -15 19 -15 31 -3 13 13
12 22 -5 72 -23 69 -26 140 -9 234 9 48 9 77 3 89 -9 16 -11 16 -16 1 -4 -11
-3 -15 4 -10 8 4 9 -1 4 -17 -16 -49 -32 -79 -38 -72 -4 3 -7 1 -7 -5 0 -7 -7
-12 -16 -12 -8 0 -12 4 -9 10 3 5 0 7 -8 4 -17 -6 -41 21 -32 36 3 5 12 10 18
9 9 0 9 -2 0 -6 -20 -8 -15 -22 7 -20 10 1 17 3 15 5 -5 5 49 79 70 97 6 6 29
54 50 107 21 54 42 95 48 91 5 -3 6 3 3 14 -5 15 0 25 18 37 29 18 40 21 31 6
-3 -5 -4 -10 -1 -10 3 0 13 14 21 31 9 17 19 28 22 25 6 -6 -6 -36 -73 -183
-37 -82 -74 -208 -74 -256 -1 -17 2 -58 6 -90 3 -34 1 -77 -5 -104 -7 -25 -10
-47 -8 -49 2 -2 27 31 55 73 28 43 62 90 76 105 14 15 25 37 25 50 -6 113 136
582 233 770 21 42 41 89 44 105 3 15 9 32 14 37 5 5 7 -1 4 -15 -3 -13 4 -1
16 26 20 50 37 145 26 145 -3 0 -6 -7 -6 -15z m-206 -472 c-4 -16 -13 -32 -21
-36 -7 -4 -13 -14 -13 -22 0 -8 -20 -59 -43 -112 -51 -113 -60 -135 -61 -145
-1 -3 -4 -10 -8 -14 -5 -4 -8 -17 -8 -30 0 -12 -6 -24 -12 -26 -7 -3 -18 -29
-24 -59 -6 -30 -15 -63 -19 -74 -6 -14 -5 -17 3 -10 5 6 26 51 45 102 41 104
87 196 87 171 0 -15 -13 -54 -65 -193 -8 -20 -8 -20 9 0 15 19 15 18 4 -15 -6
-19 -15 -40 -19 -45 -4 -6 -11 -30 -15 -53 -7 -44 -53 -146 -55 -121 -1 8 -4
3 -8 -11 -6 -20 -9 -15 -14 30 -18 136 99 516 196 636 23 29 43 53 45 54 1 0
-1 -12 -4 -27z"/>
<path d="M1580 1297 c0 -20 50 -87 64 -87 13 0 5 16 -20 43 -14 15 -23 31 -20
36 3 5 -1 11 -9 15 -8 3 -15 0 -15 -7z"/>
<path d="M845 1260 c2 -3 -7 -19 -21 -36 -24 -27 -25 -28 -20 -6 4 23 4 23
-14 7 -17 -16 -18 -20 -5 -38 18 -26 20 -48 2 -23 -12 16 -14 16 -32 -3 -10
-12 -19 -29 -20 -39 -1 -9 -7 -28 -14 -42 -11 -22 -9 -21 13 5 14 16 25 34 24
40 -1 5 2 18 7 28 7 17 8 17 20 0 13 -17 14 -17 21 2 4 11 22 40 40 65 28 40
30 46 14 46 -10 0 -17 -3 -15 -6z"/>
<path d="M1395 1250 c-4 -6 -15 -39 -25 -74 -9 -34 -22 -71 -28 -82 -6 -10
-18 -41 -28 -69 -9 -27 -34 -84 -54 -125 -21 -41 -54 -121 -75 -178 -39 -108
-60 -138 -25 -37 11 32 19 60 17 62 -8 7 -91 -232 -101 -289 -2 -14 -10 -36
-16 -48 -6 -12 -10 -24 -7 -26 7 -8 36 60 49 115 7 31 15 47 19 39 8 -12 45
61 69 135 7 22 16 34 22 31 6 -4 8 -2 4 4 -6 11 11 59 29 78 6 6 16 38 24 73
7 34 16 59 19 57 8 -9 12 -107 3 -102 -5 3 -6 -15 -3 -39 3 -34 1 -45 -9 -45
-10 0 -11 -2 -2 -8 9 -6 10 -24 3 -72 -8 -58 -7 -80 4 -69 2 2 7 36 10 74 19
223 63 468 105 578 10 27 8 37 -4 17z"/>
<path d="M1446 1191 c4 -17 1 -44 -5 -62 -13 -39 -5 -55 17 -32 11 10 13 18 6
20 -7 2 -10 20 -7 47 3 26 1 46 -6 50 -7 5 -9 -3 -5 -23z"/>
<path d="M1410 1185 c-7 -9 -10 -18 -6 -22 3 -3 6 -1 6 5 0 7 7 12 15 12 8 0
15 5 15 10 0 15 -16 12 -30 -5z"/>
<path d="M1649 1178 c9 -24 31 -37 31 -18 0 12 -24 40 -34 40 -3 0 -2 -10 3
-22z"/>
<path d="M1775 1190 c-19 -8 -19 -9 2 -9 12 -1 25 4 28 9 7 12 -2 12 -30 0z"/>
<path d="M582 1168 c-12 -15 -8 -64 7 -72 3 -2 17 10 30 27 23 28 24 29 4 23
-17 -5 -22 -2 -25 15 -3 20 -4 21 -16 7z"/>
<path d="M1320 1130 c-8 -5 -10 -10 -5 -10 6 0 6 -3 -1 -8 -16 -11 -108 -211
-101 -219 2 -2 23 40 47 92 24 53 51 105 62 117 10 12 18 25 18 30 0 10 -1 10
-20 -2z"/>
<path d="M1380 1119 c0 -13 28 -18 33 -6 3 7 -3 13 -14 13 -11 0 -19 -3 -19
-7z"/>
<path d="M1553 1106 c15 -14 33 -26 40 -26 13 1 -16 26 -48 41 -13 7 -10 1 8
-15z"/>
<path d="M1224 1071 c-21 -32 -30 -39 -40 -30 -10 8 -12 6 -9 -11 4 -22 -31
-63 -85 -99 -85 -55 -113 -93 -52 -70 36 14 94 58 88 68 -3 4 11 23 30 42 45
43 108 128 101 135 -3 3 -18 -13 -33 -35z"/>
<path d="M1500 1089 c0 -6 -7 -8 -16 -5 -8 3 -12 2 -9 -4 3 -5 17 -9 30 -8 18
2 21 5 13 15 -13 16 -18 16 -18 2z"/>
<path d="M1361 1034 c-7 -19 -10 -38 -7 -41 3 -4 6 -4 6 -1 0 3 7 22 15 42 8
20 12 36 7 36 -4 0 -14 -16 -21 -36z"/>
<path d="M1430 1068 c0 -3 -7 -22 -15 -42 -8 -20 -13 -36 -11 -36 9 0 39 71
32 77 -3 3 -6 4 -6 1z"/>
<path d="M944 953 c-15 -20 -23 -33 -16 -29 13 8 56 66 49 66 -3 0 -17 -17
-33 -37z"/>
<path d="M1688 963 c-13 -3 -18 -15 -18 -40 0 -19 -9 -48 -21 -64 -11 -16 -16
-29 -10 -29 6 0 18 12 28 28 19 29 35 43 42 37 2 -3 -4 -14 -15 -26 -19 -21
-19 -21 9 -8 27 12 35 33 17 44 -6 4 -8 11 -4 16 3 5 0 8 -7 7 -6 -2 -14 3
-17 11 -2 8 0 11 6 7 5 -3 12 1 16 9 6 15 4 16 -26 8z"/>
<path d="M1644 949 c-14 -17 -54 -104 -54 -117 0 -5 -7 -15 -15 -22 -17 -14
-21 0 -5 16 7 7 6 11 -5 11 -8 0 -13 -3 -10 -5 3 -3 -2 -10 -9 -16 -8 -6 -17
-22 -21 -34 -6 -21 -5 -22 12 -13 10 7 31 20 47 29 21 13 32 30 41 66 7 26 18
52 25 56 6 4 10 15 8 25 -2 15 -5 16 -14 4z"/>
<path d="M1438 944 c-8 -7 2 -44 12 -44 4 0 5 11 2 25 -5 27 -6 28 -14 19z"/>
<path d="M1380 913 c0 -15 -3 -74 -6 -130 -5 -89 -8 -101 -22 -95 -14 5 -14 3
1 -13 16 -15 20 -16 28 -4 10 17 9 6 14 147 1 61 -1 115 -6 117 -4 3 -8 -7 -9
-22z"/>
<path d="M1527 927 c-15 -11 -14 -13 1 -27 14 -13 15 -12 9 2 -3 9 -1 19 6 21
7 2 9 7 6 11 -3 3 -13 0 -22 -7z"/>
<path d="M1754 885 c-10 -8 -14 -15 -8 -15 5 0 19 7 30 15 10 8 14 15 8 15 -5
0 -19 -7 -30 -15z"/>
<path d="M1753 806 c-38 -36 -77 -66 -88 -66 -16 0 -17 -2 -5 -10 12 -7 11
-10 -5 -16 -23 -9 -53 -40 -112 -114 -24 -29 -43 -49 -43 -44 0 5 -16 -15 -35
-43 -19 -29 -35 -55 -35 -58 0 -3 -16 -27 -35 -54 -20 -27 -61 -100 -91 -163
-31 -62 -72 -139 -91 -171 -19 -32 -33 -60 -30 -63 6 -6 19 15 142 231 152
266 174 296 349 467 88 87 157 160 153 164 -3 4 -37 -23 -74 -60z"/>
<path d="M990 835 c13 -16 10 -22 -37 -73 -7 -7 -13 -18 -13 -23 0 -18 16 -9
39 22 12 16 31 33 42 37 19 8 19 8 -1 30 -24 25 -50 31 -30 7z"/>
<path d="M2010 810 c-21 -13 0 -32 40 -35 30 -3 30 -2 17 19 -17 24 -36 30
-57 16z"/>
<path d="M1453 771 c-6 -10 -8 -22 -5 -27 4 -5 5 -8 3 -6 -7 4 -41 -30 -41
-42 0 -6 6 -4 13 5 7 8 19 18 27 21 9 3 17 20 18 37 3 36 1 38 -15 12z"/>
<path d="M881 746 c-7 -8 -23 -17 -38 -21 -14 -3 -23 -8 -21 -10 10 -10 75 16
75 30 0 18 -2 19 -16 1z"/>
<path d="M1930 752 c0 -5 7 -16 16 -23 14 -12 16 -11 13 5 -4 20 -29 35 -29
18z"/>
<path d="M1246 712 c-5 -18 -5 -36 -2 -39 7 -7 19 43 13 59 -2 7 -7 -2 -11
-20z"/>
<path d="M1535 725 c-22 -8 -41 -15 -42 -15 -2 0 -2 -3 -1 -7 0 -5 -2 -16 -7
-26 -4 -10 -5 -21 -1 -24 3 -4 6 1 6 10 0 10 5 17 10 17 6 0 10 6 10 14 0 16
14 22 70 31 19 3 36 8 39 11 10 9 -47 2 -84 -11z"/>
<path d="M1900 690 c0 -8 -7 -22 -17 -32 -14 -15 -14 -18 -1 -18 8 0 22 8 32
19 15 16 15 19 1 31 -12 10 -15 10 -15 0z"/>
<path d="M2200 689 c0 -5 5 -7 10 -4 6 4 22 0 35 -9 13 -9 33 -16 45 -16 12 0
20 -7 21 -17 0 -12 2 -13 6 -5 4 10 8 10 19 1 10 -8 14 -33 14 -80 0 -38 7
-114 15 -170 8 -55 13 -104 11 -108 -3 -4 4 -36 14 -71 11 -35 25 -97 32 -137
11 -68 13 -73 37 -73 21 0 23 2 11 10 -13 8 -12 10 3 10 14 0 16 4 9 18 -6 9
-13 37 -17 62 -4 25 -17 61 -29 80 -31 47 -35 64 -37 140 -1 36 -10 98 -20
139 -11 41 -19 95 -18 120 l0 46 24 -69 c13 -39 31 -74 40 -79 10 -5 16 -20
15 -40 -1 -18 -1 -35 0 -39 1 -5 3 -11 4 -15 1 -5 10 -26 20 -48 10 -22 23
-67 31 -101 7 -33 17 -69 23 -80 7 -10 25 -49 41 -86 20 -46 35 -68 47 -68 15
0 16 2 2 18 -31 36 -31 46 1 20 59 -50 63 -34 8 33 -15 19 -46 56 -68 83 -41
49 -45 80 -13 99 18 10 18 27 0 27 -8 0 -17 -8 -21 -17 -8 -20 -32 73 -42 160
-3 34 -12 52 -29 66 -13 10 -32 43 -44 73 -25 66 -51 93 -119 118 -58 22 -81
25 -81 9z"/>
<path d="M1220 664 c0 -9 -5 -12 -12 -8 -8 5 -9 0 -6 -14 4 -12 3 -20 -2 -17
-4 3 -10 -4 -13 -15 -3 -11 -1 -17 4 -14 12 7 7 -79 -5 -87 -4 -4 -4 -9 1 -12
5 -3 22 8 36 25 17 19 21 28 11 24 -15 -6 -16 2 -12 64 3 38 4 70 2 70 -2 0
-4 -7 -4 -16z"/>
<path d="M1309 668 c0 -7 -2 -23 -3 -35 -2 -13 1 -23 6 -23 4 0 8 16 8 35 0
32 -9 51 -11 23z"/>
<path d="M2205 624 c-4 -22 -13 -56 -21 -77 -18 -47 -18 -66 -1 -42 11 14 21
17 48 12 24 -5 30 -4 19 3 -8 5 -23 10 -32 10 -21 0 -21 1 -8 70 6 29 8 55 6
58 -3 2 -8 -13 -11 -34z"/>
<path d="M1250 594 c0 -19 4 -33 8 -30 8 5 4 66 -4 66 -2 0 -4 -16 -4 -36z"/>
<path d="M1167 563 c-16 -56 -68 -184 -87 -218 -32 -55 -13 -34 45 50 42 61
49 77 51 128 3 58 0 70 -9 40z"/>
<path d="M1946 494 c-49 -63 -53 -91 -5 -34 44 52 62 80 56 86 -3 3 -26 -20
-51 -52z"/>
<path d="M2277 537 c-3 -8 -1 -52 5 -98 5 -46 10 -92 11 -101 1 -10 5 -18 9
-18 4 0 8 -8 8 -17 0 -9 2 -14 5 -11 3 3 -1 34 -10 69 -18 78 -18 82 -2 73 9
-6 9 -4 1 7 -14 18 -27 82 -15 74 5 -3 7 4 4 15 -6 24 -9 25 -16 7z"/>
<path d="M1347 519 c-9 -5 -22 -7 -29 -3 -7 4 -8 3 -4 -4 4 -7 2 -12 -4 -12
-12 0 20 -49 33 -50 5 0 7 12 5 28 -2 15 3 32 12 39 18 15 11 16 -13 2z"/>
<path d="M1785 432 c-19 -14 -48 -52 -39 -51 5 0 19 13 32 30 24 29 25 35 7
21z"/>
<path d="M2320 430 c0 -8 5 -22 10 -30 9 -13 10 -13 10 0 0 8 -5 22 -10 30 -9
13 -10 13 -10 0z"/>
<path d="M2494 429 c0 -8 8 -22 18 -31 23 -23 23 -10 -1 21 -10 13 -18 17 -17
10z"/>
<path d="M1258 413 c15 -6 16 -33 1 -33 -6 0 -9 -6 -6 -12 2 -7 -9 -40 -25
-73 -15 -33 -28 -69 -27 -80 0 -18 1 -17 10 4 5 13 16 38 24 55 49 109 56 147
28 145 -11 0 -13 -3 -5 -6z"/>
<path d="M1704 333 c-1 -13 -1 -23 1 -23 1 0 9 10 18 23 13 20 13 23 -2 23
-10 0 -17 -9 -17 -23z"/>
<path d="M2500 335 c0 -8 9 -19 19 -24 17 -10 18 -9 7 14 -12 28 -26 33 -26
10z"/>
<path d="M1652 298 c-7 -7 -12 -20 -12 -29 0 -15 -5 -16 -32 -8 -36 10 -52 2
-25 -12 16 -9 16 -12 2 -26 -9 -9 -14 -22 -11 -29 3 -8 1 -14 -4 -14 -6 0 -10
7 -10 16 0 30 -20 2 -26 -37 -4 -22 -11 -42 -16 -45 -6 -4 -7 3 -3 17 7 23 7
23 -18 -3 -14 -16 -32 -28 -39 -28 -7 -1 -2 -7 12 -14 26 -15 52 -10 29 5 -8
5 -9 9 -3 9 5 0 15 -5 21 -11 8 -8 16 -4 27 14 9 13 15 29 14 33 -2 5 1 10 5
11 8 2 24 18 45 45 12 14 10 16 -10 11 -23 -6 -23 -6 -4 15 21 24 41 30 31 10
-4 -7 1 -4 9 6 9 11 16 28 16 38 0 10 5 18 11 18 5 0 7 -6 3 -12 -4 -7 -3 -9
1 -5 11 10 15 37 6 37 -4 0 -12 -5 -19 -12z"/>
<path d="M1704 254 c-20 -31 -34 -58 -31 -60 5 -6 17 10 51 69 37 65 24 59
-20 -9z"/>
<path d="M2557 279 c4 -13 9 -17 15 -11 11 11 3 32 -12 32 -4 0 -6 -9 -3 -21z"/>
<path d="M2291 255 c4 -44 -12 -194 -21 -200 -4 -2 -5 -16 -2 -30 3 -18 9 -24
19 -21 8 3 17 6 21 6 3 0 -2 6 -11 13 -14 10 -15 19 -6 56 12 53 15 188 5 199
-5 4 -7 -6 -5 -23z"/>
<path d="M2607 261 c22 -19 22 -19 2 -24 -13 -4 -18 -10 -14 -17 6 -9 10 -9
16 1 6 10 9 6 9 -13 0 -32 -15 -37 -23 -8 -4 15 -14 20 -36 20 -17 0 -31 -3
-31 -6 0 -3 21 -29 46 -58 26 -28 61 -76 78 -106 l31 -55 6 50 6 50 1 -47 c2
-35 6 -48 17 -48 8 0 15 1 15 3 -1 1 -13 47 -29 102 -17 65 -32 99 -40 97 -7
-1 -9 2 -6 9 8 12 -42 69 -59 69 -6 -1 -1 -9 11 -19z m77 -131 c5 -23 4 -30
-2 -20 -14 23 -25 77 -14 65 6 -5 13 -26 16 -45z m-15 -50 c0 -9 -4 -8 -9 5
-5 11 -9 27 -9 35 0 9 4 8 9 -5 5 -11 9 -27 9 -35z"/>
<path d="M1231 232 c-1 -7 -10 -32 -22 -55 -32 -64 -69 -177 -58 -177 10 0 17
16 60 139 17 46 28 89 25 95 -3 7 -5 6 -5 -2z"/>
<path d="M1726 205 c-14 -15 -14 -35 0 -35 3 0 3 4 -1 9 -3 6 3 14 12 20 10 5
15 12 12 16 -4 3 -14 -1 -23 -10z"/>
<path d="M1090 195 c0 -8 5 -15 10 -15 6 0 10 7 10 15 0 8 -4 15 -10 15 -5 0
-10 -7 -10 -15z"/>
<path d="M835 173 c3 -8 5 -26 5 -39 0 -13 3 -24 8 -24 4 0 7 17 7 38 0 25 -5
39 -13 39 -7 0 -10 -7 -7 -14z"/>
<path d="M1654 165 c-4 -8 -12 -15 -19 -15 -8 0 -11 -8 -8 -20 3 -11 0 -20 -6
-20 -6 0 -11 -9 -11 -20 0 -11 -4 -20 -10 -20 -5 0 -10 -8 -10 -17 0 -9 -7
-25 -17 -35 -15 -17 -15 -18 1 -18 11 0 27 22 46 61 15 33 36 69 46 80 11 12
13 19 5 19 -7 0 -9 5 -6 10 3 6 4 10 0 10 -3 0 -8 -7 -11 -15z"/>
<path d="M1958 110 c-3 -17 -1 -30 4 -30 4 0 8 14 8 30 0 17 -2 30 -4 30 -2 0
-6 -14 -8 -30z"/>
<path d="M1104 123 c10 -11 36 -12 36 -2 0 5 -10 9 -22 9 -12 0 -18 -3 -14 -7z"/>
<path d="M1980 65 c0 -12 3 -16 8 -8 4 6 23 13 42 15 l35 3 -42 6 c-38 4 -43
2 -43 -16z"/>
<path d="M1388 44 c-2 -19 0 -37 4 -40 4 -3 8 13 8 35 0 51 -6 53 -12 5z"/>
<path d="M2113 58 c38 -8 47 -14 48 -32 l0 -21 9 21 c7 17 14 20 37 16 15 -2
25 -2 22 2 -8 8 -28 12 -104 19 l-60 6 48 -11z"/>
<path d="M1947 46 c-4 -10 -7 -25 -6 -34 0 -11 4 -9 10 7 5 13 8 29 6 35 -2 5
-6 2 -10 -8z"/>
<path d="M916 25 c-9 -14 -13 -25 -8 -25 5 0 14 11 20 25 6 14 10 25 8 25 -2
0 -11 -11 -20 -25z"/>
<path d="M1630 41 c0 -21 13 -41 26 -41 21 0 17 28 -6 40 -12 6 -20 7 -20 1z"/>
<path d="M1030 21 c0 -6 -19 -12 -42 -14 -38 -4 -37 -4 10 -4 36 0 52 5 52 14
0 7 -4 13 -10 13 -5 0 -10 -4 -10 -9z"/>
</g>
</svg>
